<?xml version="1.0" encoding="utf-8"?>
<!-- Generator: Adobe Illustrator 24.0.1, SVG Export Plug-In . SVG Version: 6.00 Build 0)  -->
<svg version="1.1" id="Layer_1" xmlns="http://www.w3.org/2000/svg" xmlns:xlink="http://www.w3.org/1999/xlink" x="0px" y="0px"
	 viewBox="0 0 312 312" style="enable-background:new 0 0 312 312;" xml:space="preserve">
<style type="text/css">
	.st0{fill:#010101;}
	.st1{fill:#EF3F23;}
	.st2{fill:#FFFFFF;}
</style>
<g>
	<path class="st1" d="M145.9,63.4c6.7,0,13.2,0,19.8,0c1.4,4.9,2.9,9.8,4.1,14.7c0.6,2.3,1.7,3.5,4.1,4c7.6,1.8,14.8,4.7,21.4,8.9
		c1.8,1.2,3.5,1.2,5.4,0.1c4.4-2.6,9-5.1,13.4-7.5c4.7,4.7,9.4,9.3,14.1,14.1c-2.4,4.4-4.9,8.9-7.5,13.3c-1.1,1.9-1.1,3.5,0,5.4
		c4.3,6.8,7.2,14.1,9,21.8c0.5,2,1.5,3.1,3.5,3.6c5,1.4,10.1,2.8,15.2,4.2c0,6.6,0,13.2,0,19.8c-4.9,1.4-9.8,2.9-14.7,4.1
		c-2.3,0.6-3.5,1.7-4,4.1c-1.8,7.7-4.8,14.9-9,21.6c-1.1,1.8-1.1,3.4,0,5.2c2.6,4.5,5.1,9,7.5,13.4c-4.7,4.7-9.4,9.3-14.1,14.1
		c-4.2-2.4-8.7-4.8-13.1-7.4c-2-1.2-3.7-1.2-5.7,0.1c-6.5,4.1-13.6,7-21.1,8.8c-2.4,0.6-3.8,1.7-4.4,4.2c-1.2,4.9-2.7,9.7-4.1,14.6
		c-6.6,0-13.1,0-19.8,0c-1.4-4.9-2.9-9.8-4.1-14.7c-0.6-2.3-1.7-3.5-4.1-4c-7.6-1.8-14.8-4.8-21.5-8.9c-1.9-1.2-3.5-1.2-5.4-0.1
		c-4.4,2.6-9,5.1-13.3,7.5c-4.7-4.7-9.3-9.3-14.1-14.1c2.4-4.3,4.9-8.8,7.5-13.3c1.1-1.9,1.1-3.5,0-5.4c-4.2-6.8-7.2-14.1-9-21.8
		c-0.5-2-1.5-3.1-3.5-3.6c-5-1.4-10.1-2.8-15.1-4.2c0-6.6,0-13.2,0-19.8c5-1.4,9.9-2.8,14.9-4.2c2.1-0.6,3.2-1.7,3.7-3.8
		c1.8-7.7,4.8-14.9,9-21.7c1.2-1.8,1.2-3.5,0.1-5.4c-2.6-4.4-5.1-9-7.5-13.3c4.7-4.7,9.3-9.3,14.1-14.1c4.3,2.4,8.9,4.9,13.3,7.5
		c1.9,1.1,3.5,1.1,5.4-0.1c6.6-4.1,13.7-7.1,21.2-8.9c2.4-0.6,3.8-1.7,4.4-4.2C143,73.1,144.5,68.3,145.9,63.4z"/>
	<circle class="st2" cx="155.8" cy="156" r="47.3"/>
	<g>
		<path class="st1" d="M277.5,153.7c-0.6-31.7-13.2-61.5-35.6-83.8s-52.1-35-83.8-35.6l-5.7-0.1l11.4,11.4l0.8,0.1
			c26.2,2.1,50.9,13.5,69.5,32c18.6,18.6,29.9,43.2,32,69.5l0.1,0.8l11.4,11.4L277.5,153.7z"/>
		<path class="st1" d="M146.9,266.4c-26.2-2.1-50.9-13.5-69.5-32c-18.6-18.6-29.9-43.2-32-69.5l-0.1-0.8L34,152.6l0.1,5.7
			c0.6,31.7,13.2,61.4,35.6,83.8c22.4,22.4,52.1,35,83.8,35.6l5.7,0.1l-11.4-11.4L146.9,266.4z"/>
	</g>
	<circle cx="162" cy="39.1" r="14.9"/>
	<circle cx="272.9" cy="150" r="14.9"/>
	<circle cx="39.1" cy="162" r="14.9"/>
	<circle cx="150" cy="272.9" r="14.9"/>
	<circle cx="155.9" cy="156.2" r="30.5"/>
</g>
</svg>
